{"title":"Man on Fire (2004) DVDRip XviD AC3 peaSoup","uid":8849316,"size":1632935158,"categoryP":"video","categoryS":"movies","magnet":"?xt=urn:btih:56f3b4b32531a28ce51f9e02d244c703fc16ae5e&amp;dn=Man+on+Fire+%282004%29+DVDRip+XviD+AC3+peaSoup&amp;tr=udp%3A%2F%2Ftracker.openbittorrent.com%3A80&amp;tr=udp%3A%2F%2Fopen.demonii.com%3A1337&amp;tr=udp%3A%2F%2Ftracker.coppersurfer.tk%3A6969&amp;tr=udp%3A%2F%2Fexodus.desync.com%3A6969","seeders":5,"leechers":1,"uploader":"peaSoup","files":-1,"time":1377479529,"description":"In Mexico City, a former assassin swears vengeance on those who committed an unspeakable act against the family he was hired to protect.                         &lt;a href=&quot; http://imageshack.us/a/img94/9026/29du.jpg&quot; rel=&quot;nofollow&quot; target=&quot;_NEW&quot;&gt; http://imageshack.us/a/img94/9026/29du.jpg&lt;/a&gt;                                          &lt;a href=&quot; http://imageshack.us/a/img16/7573/uyy2.jpg&quot; rel=&quot;nofollow&quot; target=&quot;_NEW&quot;&gt; http://imageshack.us/a/img16/7573/uyy2.jpg&lt;/a&gt;                                          &lt;a href=&quot; http://imageshack.us/a/img202/4674/jzfy.jpg&quot; rel=&quot;nofollow&quot; target=&quot;_NEW&quot;&gt; http://imageshack.us/a/img202/4674/jzfy.jpg&lt;/a&gt;                                         &lt;a href=&quot; http://imageshack.us/a/img42/281/6v71.jpg&quot; rel=&quot;nofollow&quot; target=&quot;_NEW&quot;&gt; http://imageshack.us/a/img42/281/6v71.jpg&lt;/a&gt;                                           &lt;a href=&quot; http://imageshack.us/a/img16/3959/ed44.jpg&quot; rel=&quot;nofollow&quot; target=&quot;_NEW&quot;&gt; http://imageshack.us/a/img16/3959/ed44.jpg&lt;/a&gt;                                           Format                                   : AVI\nFormat/Info                              : Audio Video Interleave\nFormat profile                           : OpenDML\nFile size                                : 1.52 GiB\nDuration                                 : 2h 20mn\nOverall bit rate                         : 1 554 Kbps\nMovie name                               : Man on Fire (2004) DVDRip XviD AC3 peaSoup\nWriting application                      : Lavf53.21.0\nOriginal source form/Name                : MAN_ON_FIRE\n\nVideo\nID                                       : 0\nFormat                                   : MPEG-4 Visual\nFormat profile                           : Advanced Simple@L5\nFormat settings, BVOP                    : 2\nFormat settings, QPel                    : No\nFormat settings, GMC                     : No warppoints\nFormat settings, Matrix                  : Default (H.263)\nMuxing mode                              : Packed bitstream\nCodec ID                                 : XVID\nCodec ID/Hint                            : XviD\nDuration                                 : 2h 20mn\nBit rate                                 : 1 094 Kbps\nWidth                                    : 720 pixels\nHeight                                   : 304 pixels\nDisplay aspect ratio                     : 2.35:1\nFrame rate                               : 25.000 fps\nColor space                              : YUV\nChroma subsampling                       : 4:2:0\nBit depth                                : 8 bits\nScan type                                : Progressive\nCompression mode                         : Lossy\nBits/(Pixel*Frame)                       : 0.200\nStream size                              : 1.07 GiB (70%)\nWriting library                          : XviD 1.2.1 (UTC 2008-12-04)\n\nAudio\nID                                       : 1\nFormat                                   : AC-3\nFormat/Info                              : Audio Coding 3\nMode extension                           : CM (complete main)\nFormat settings, Endianness              : Big\nCodec ID                                 : 2000\nDuration                                 : 2h 20mn\nBit rate mode                            : Constant\nBit rate                                 : 448 Kbps\nChannel(s)                               : 6 channels\nChannel positions                        : Front: L C R, Side: L R, LFE\nSampling rate                            : 48.0 KHz\nBit depth                                : 16 bits\nCompression mode                         : Lossy\nStream size                              : 449 MiB (29%)\nAlignment                                : Aligned on interleaves\nInterleave, duration                     : 32 ms (0.80 video frame)\n\n","torrent":{"xt":"urn:btih:56f3b4b32531a28ce51f9e02d244c703fc16ae5e","amp;dn":"Man+on+Fire+%282004%29+DVDRip+XviD+AC3+peaSoup","amp;tr":["udp%3A%2F%2Ftracker.openbittorrent.com%3A80","udp%3A%2F%2Fopen.demonii.com%3A1337","udp%3A%2F%2Ftracker.coppersurfer.tk%3A6969","udp%3A%2F%2Fexodus.desync.com%3A6969"],"infoHash":"56f3b4b32531a28ce51f9e02d244c703fc16ae5e","infoHashBuffer":{"type":"Buffer","data":[86,243,180,179,37,49,162,140,229,31,158,2,210,68,199,3,252,22,174,94]},"announce":[],"urlList":[]}}